<?xml version="1.0" encoding="UTF-8"?>
<!-- Svg Vector Icons : http://www.onlinewebfonts.com/icon -->
<!DOCTYPE svg PUBLIC "-//W3C//DTD SVG 1.1//EN" "http://www.w3.org/Graphics/SVG/1.1/DTD/svg11.dtd">
<svg version="1.1" xmlns="http://www.w3.org/2000/svg" xmlns:xlink="http://www.w3.org/1999/xlink" x="0px" y="0px" viewBox="0 0 1000 1000" enable-background="new 0 0 1000 1000" xml:space="preserve">
<metadata> Svg Vector Icons : http://www.onlinewebfonts.com/icon </metadata>
<g><g transform="translate(0.000000,511.000000) scale(0.100000,-0.100000)"><path d="M2132.3,2951.6c-42.1-23.2-105.2-75.8-138.9-117.9l-63.1-75.8l-250.5,63.1c-357.8,92.6-673.6,136.8-974.6,138.9c-399.9,2.1-570.4-75.8-602-275.8c-23.2-147.3,77.9-214.7,402-261c250.5-35.8,905.1-16.8,1233.5,33.7c71.6,12.6,75.8,10.5,98.9-67.4c29.5-96.8,80-130.5,216.8-147.3l103.1-12.6v-143.1v-143.1l-77.9-12.6c-44.2-6.3-107.3-16.8-138.9-21c-33.7-6.3-88.4-29.5-122.1-52.6c-258.9-185.2,37.9-997.7,402-1094.6c80-21,98.9-18.9,202.1,31.6c63.1,31.6,130.5,80,149.5,107.4l31.6,50.5h660.9h660.9V733.1c0-204.2-4.2-221-44.2-233.6c-77.9-25.3-193.6-145.2-242.1-252.6l-50.5-105.2V-965.6v-1105.1l58.9-115.8c63.1-126.3,191.5-235.7,315.7-271.5c48.4-12.6,442-21,1037.7-21c1056.7,0,1071.4,2.1,1227.2,130.5c44.2,35.8,103.1,113.7,130.5,172.6l50.5,107.3v1105.1V141.6L6359,246.8c-48.4,107.3-164.2,227.3-242.1,252.6c-40,12.6-44.2,29.5-44.2,233.6V952h690.4h692.5l86.3-84.2c208.4-195.8,442-134.7,635.7,168.4c153.7,237.9,221,602,143.1,749.4c-40,71.6-164.2,134.7-267.3,134.7c-117.9,0-128.4,12.6-128.4,168.4v141l96.8,12.6c120,12.6,206.3,73.7,214.7,151.6c8.4,56.8,8.4,56.8,126.3,44.2c65.3-6.3,305.2-18.9,530.4-25.3c553.6-18.9,854.6,23.2,962,132.6c46.3,44.2,50.5,63.1,40,138.9c-18.9,113.7-94.7,193.7-231.5,240c-223.1,75.8-797.8,35.8-1315.6-92.6l-218.9-54.7l-42.1,56.8c-54.7,75.8-204.2,160-286.3,160c-96.8,0-200-52.6-286.3-151.6l-75.8-84.2l-204.2,54.7c-454.7,120-964,178.9-1231.4,141c-280-40-404.2-138.9-389.4-313.6c8.4-90.5,88.4-155.8,244.2-193.7c229.4-54.7,1029.3-48.4,1399.8,12.6c73.7,12.6,77.9,10.5,77.9-42.1c0-86.3,84.2-155.8,208.4-172.6l107.3-14.7v-141c0-155.8-10.5-168.4-128.4-168.4c-151.6,0-292.6-124.2-292.6-256.8v-58.9h-578.9h-578.8v242.1v242.1H4999.2H3925.7v-242.1v-242.1H3391h-532.5l-14.7,86.3c-16.8,109.4-105.2,202.1-208.4,216.8c-44.2,6.3-111.6,16.8-151.6,23.2l-73.7,12.6v145.2c0,141,2.1,147.3,50.5,147.3c153.7,0,256.8,61,277.9,166.3l12.6,58.9l117.9-21c183.1-33.7,1105.1-31.6,1250.3,2.1c172.6,40,256.8,103.1,265.2,197.9c25.3,294.7-368.4,391.5-1111.4,277.8c-109.5-16.8-301-54.7-425.2-84.2l-227.3-54.7l-54.7,67.4C2448,2985.3,2277.5,3027.4,2132.3,2951.6z M4355.1,211c21-27.4,33.7-90.5,33.7-153.6c0-63.2-12.6-126.3-33.7-153.7c-29.5-42.1-50.5-46.3-206.3-46.3c-105.2,0-183.1,10.5-197.9,25.3c-14.7,14.7-25.3,84.2-25.3,166.3c0,191.6,18.9,208.4,231.5,208.4C4304.6,257.3,4327.7,253.1,4355.1,211z M5300.2-475.2c679.9-317.9,694.6-1244,25.3-1574.5c-743-368.4-1528.2,442.1-1149.3,1187.2c101,195.8,320,372.6,547.3,437.8C4885.5-378.3,5140.2-399.4,5300.2-475.2z"/><path d="M4847.6-616.2c-8.4-8.4,2.1-40,25.3-69.5c65.3-80,90.5-200,63.1-298.9c-27.4-101-124.2-216.8-210.5-252.6c-90.5-37.9-273.6-16.8-353.6,37.9l-65.3,46.3l-12.6-44.2c-40-124.2,58.9-404.1,189.4-534.6c189.4-187.4,505.2-246.3,736.7-136.8c134.7,65.2,273.6,206.3,332.6,332.6c71.6,153.7,65.3,397.8-12.6,555.7c-65.2,132.6-181,244.2-324.2,311.5C5119.2-624.6,4875-588.8,4847.6-616.2z"/><path d="M3144.8-732c-667.3-77.9-1267.2-501-1570.3-1105.1c-120-237.9-216.8-629.4-216.8-877.8v-58.9h248.4h250.5l23.1,195.7c40,315.7,145.2,568.3,336.8,802c248.4,301,631.5,505.2,999.8,532.5l162.1,12.6v258.9C3378.4-673,3405.8-702.5,3144.8-732z"/><path d="M6603.1-967.7l6.3-258.9l151.6-12.6c633.6-56.8,1176.6-538.9,1319.8-1170.4c18.9-84.2,33.7-200,33.7-256.8v-107.3h254.7H8626l-12.6,195.7c-50.5,797.8-612.5,1511.3-1382.9,1757.6c-153.7,48.4-307.3,80-501,98.9l-132.6,12.6L6603.1-967.7z"/></g></g>
</svg>