<svg width="203" height="203" xmlns="http://www.w3.org/2000/svg" xmlns:xlink="http://www.w3.org/1999/xlink" overflow="hidden"><defs><clipPath id="clip0"><path d="M633 228 836 228 836 431 633 431Z" fill-rule="evenodd" clip-rule="evenodd"/></clipPath></defs><g clip-path="url(#clip0)" transform="translate(-633 -228)"><path d="M754.5 388.886 755.305 275.5" stroke="#BFBFBF" stroke-width="13" stroke-miterlimit="8" fill="none" fill-rule="evenodd"/><path d="M714.5 388.886 715.305 275.5" stroke="#BFBFBF" stroke-width="13" stroke-miterlimit="8" fill="none" fill-rule="evenodd"/><path d="M678.5 351.5 791.886 352.305" stroke="#BFBFBF" stroke-width="13" stroke-miterlimit="8" fill="none" fill-rule="evenodd"/><path d="M678.5 312.5 791.886 313.305" stroke="#BFBFBF" stroke-width="13" stroke-miterlimit="8" fill="none" fill-rule="evenodd"/><path d="M0 0 0.230656 16.2216" stroke="#4FC196" stroke-width="13" stroke-miterlimit="8" fill="none" fill-rule="evenodd" transform="matrix(-1 -8.74228e-08 -8.74228e-08 1 734.731 370.5)"/><path d="M678.5 332.5 697.185 332.5" stroke="#8F578C" stroke-width="13" stroke-miterlimit="8" fill="none" fill-rule="evenodd"/><path d="M670.275 300.01C655.634 284.974 655.954 260.915 670.99 246.275 686.026 231.634 710.085 231.954 724.726 246.99 731.634 254.085 735.5 263.597 735.5 273.5" stroke="#4EAFC6" stroke-width="13" stroke-miterlimit="8" fill="none" fill-rule="evenodd"/><path d="M704.829 397.04C689.696 411.39 665.641 410.916 651.1 395.983 636.558 381.049 637.038 357.31 652.171 342.96 659.249 336.249 668.684 332.5 678.5 332.5" stroke="#8F578C" stroke-width="13" stroke-miterlimit="8" fill="none" fill-rule="evenodd"/><path d="M764.99 267.275C780.026 252.634 804.085 252.954 818.726 267.99 833.367 283.026 833.046 307.085 818.01 321.726 811.019 328.533 801.677 332.39 791.919 332.498" stroke="#D64A86" stroke-width="13" stroke-miterlimit="8" fill="none" fill-rule="evenodd"/><path d="M799.726 359.99C814.367 375.026 814.046 399.085 799.01 413.726 783.974 428.367 759.916 428.046 745.275 413.01 738.349 405.898 734.482 396.357 734.5 386.43" stroke="#4FC196" stroke-width="13" stroke-miterlimit="8" fill="none" fill-rule="evenodd"/><path d="M0 0 18.6404 0.233071" stroke="#D64A86" stroke-width="13" stroke-miterlimit="8" fill="none" fill-rule="evenodd" transform="matrix(1 0 0 -1 773.5 332.733)"/><path d="M735.5 273.5 735.5 294.543" stroke="#4EAFC6" stroke-width="13" stroke-miterlimit="8" fill="none" fill-rule="evenodd"/><path d="M696 306.667C696 299.671 701.671 294 708.667 294L760.333 294C767.329 294 773 299.671 773 306.667L773 357.333C773 364.329 767.329 370 760.333 370L708.667 370C701.671 370 696 364.329 696 357.333Z" stroke="#FFFFFF" stroke-width="8" stroke-miterlimit="8" fill="#BFBFBF" fill-rule="evenodd"/></g></svg>