<svg width="203" height="203" xmlns="http://www.w3.org/2000/svg" xmlns:xlink="http://www.w3.org/1999/xlink" overflow="hidden"><defs><clipPath id="clip0"><path d="M633 228 836 228 836 431 633 431Z" fill-rule="evenodd" clip-rule="evenodd"/></clipPath></defs><g clip-path="url(#clip0)" transform="translate(-633 -228)"><path d="M734.5 370.5 734.5 386.952" stroke="#4FC196" stroke-width="13" stroke-miterlimit="8" fill="none" fill-rule="evenodd"/><path d="M678.5 332.5 695.835 332.5" stroke="#8F578C" stroke-width="13" stroke-miterlimit="8" fill="none" fill-rule="evenodd"/><path d="M670.275 300.01C655.634 284.974 655.954 260.915 670.99 246.275 686.026 231.634 710.085 231.954 724.726 246.99 731.634 254.085 735.5 263.597 735.5 273.5" stroke="#4EAFC6" stroke-width="13" stroke-miterlimit="8" fill="none" fill-rule="evenodd"/><path d="M704.829 397.04C689.696 411.39 665.641 410.916 651.1 395.983 636.558 381.049 637.038 357.31 652.171 342.96 659.249 336.249 668.684 332.5 678.5 332.5" stroke="#8F578C" stroke-width="13" stroke-miterlimit="8" fill="none" fill-rule="evenodd"/><path d="M764.99 267.275C780.026 252.634 804.085 252.954 818.726 267.99 833.367 283.026 833.046 307.085 818.01 321.726 811.019 328.533 801.677 332.39 791.919 332.498" stroke="#D64A86" stroke-width="13" stroke-miterlimit="8" fill="none" fill-rule="evenodd"/><path d="M799.726 359.99C814.367 375.026 814.046 399.085 799.01 413.726 783.974 428.367 759.916 428.046 745.275 413.01 738.349 405.898 734.482 396.357 734.5 386.43" stroke="#4FC196" stroke-width="13" stroke-miterlimit="8" fill="none" fill-rule="evenodd"/><path d="M0 0 19.1114 0.00230971" stroke="#D64A86" stroke-width="13" stroke-miterlimit="8" fill="none" fill-rule="evenodd" transform="matrix(1 0 0 -1 772.5 332.502)"/><path d="M735.5 273.5 735.5 293.839" stroke="#4EAFC6" stroke-width="13" stroke-miterlimit="8" fill="none" fill-rule="evenodd"/><path d="M701 310C701 303.925 705.925 299 712 299L756 299C762.075 299 767 303.925 767 310L767 354C767 360.075 762.075 365 756 365L712 365C705.925 365 701 360.075 701 354Z" fill="#BFBFBF" fill-rule="evenodd"/><rect x="707" y="370" width="13" height="13" fill="#BFBFBF"/><rect x="748" y="370" width="13" height="13" fill="#BFBFBF"/><rect x="707" y="281" width="13" height="13" fill="#BFBFBF"/><rect x="748" y="281" width="13" height="13" fill="#BFBFBF"/><rect x="772" y="304" width="13" height="13" fill="#BFBFBF"/><rect x="772" y="346" width="13" height="13" fill="#BFBFBF"/><rect x="682" y="304" width="13" height="13" fill="#BFBFBF"/><rect x="682" y="346" width="13" height="13" fill="#BFBFBF"/></g></svg>